<svg width="96" height="96" viewBox="0 0 96 96" fill="none" xmlns="http://www.w3.org/2000/svg">
<path fill-rule="evenodd" clip-rule="evenodd" d="M48 15.1966C58.6748 15.1966 59.9351 15.2437 64.1486 15.4318C66.6855 15.4626 69.1984 15.9271 71.5787 16.8053C73.3094 17.4538 74.8763 18.4751 76.1684 19.7968C77.4961 21.0877 78.518 22.6596 79.1592 24.397C80.0411 26.7735 80.5057 29.2846 80.5324 31.8194C80.7299 36.0339 80.7675 37.3039 80.7675 47.9812C80.7675 58.6585 80.7675 59.9191 80.5324 64.1336C80.5057 66.6684 80.0411 69.1795 79.1592 71.556C78.4945 73.28 77.4767 74.846 76.1713 76.1534C74.8658 77.4607 73.3015 78.4807 71.5787 79.1477C69.1984 80.0258 66.6855 80.4904 64.1486 80.5212C59.9351 80.7093 58.6748 80.7564 48 80.7564C37.3252 80.7564 36.0649 80.7093 31.8514 80.5212C29.3146 80.4904 26.8017 80.0258 24.4214 79.1477C22.6986 78.4807 21.1343 77.4607 19.8288 76.1534C18.5233 74.846 17.5056 73.28 16.8408 71.556C15.9589 69.1795 15.4943 66.6684 15.4677 64.1336C15.2702 59.9191 15.2325 58.6491 15.2325 47.9812C15.2325 37.3133 15.2325 36.0339 15.4677 31.8194C15.4943 29.2846 15.9589 26.7735 16.8408 24.397C17.4821 22.6596 18.504 21.0877 19.8317 19.7968C21.1238 18.4751 22.6907 17.4538 24.4214 16.8053C26.8017 15.9271 29.3146 15.4626 31.8514 15.4318C36.0649 15.2437 37.3252 15.1966 48 15.1966ZM48 8C37.1465 8 35.7733 8 31.5222 8.23518C28.2039 8.30983 24.9221 8.94597 21.8161 10.1167C19.1598 11.1422 16.7475 12.7124 14.7341 14.7262C12.7207 16.7401 11.1509 19.153 10.1256 21.81C8.95163 24.9124 8.31549 28.1925 8.24454 31.5089C8.04703 35.7799 8 37.1533 8 48C8 58.8467 8.00001 60.2295 8.24454 64.4817C8.31699 67.801 8.95306 71.0839 10.1256 74.19C11.153 76.8446 12.7237 79.2552 14.7369 81.2673C16.75 83.2793 19.1613 84.8484 21.8161 85.874C24.9208 87.0492 28.2034 87.6855 31.5222 87.7554C35.7827 87.953 37.1653 88 48 88C58.8347 88 60.2267 87.953 64.4778 87.7554C67.7967 87.6855 71.0792 87.0492 74.1839 85.874C76.8387 84.8484 79.25 83.2793 81.2632 81.2673C83.2764 79.2552 84.847 76.8446 85.8745 74.19C87.047 71.0839 87.6831 67.801 87.7555 64.4817C87.953 60.2201 88 58.8373 88 48C88 37.1628 88 35.7705 87.7555 31.5089C87.6846 28.1925 87.0484 24.9124 85.8745 21.81C84.8492 19.153 83.2793 16.7401 81.2659 14.7262C79.2526 12.7124 76.8402 11.1422 74.1839 10.1167C71.0779 8.94597 67.7962 8.30983 64.4778 8.23518C60.2173 8.03763 58.8347 8 48 8ZM48 27.445C43.9389 27.4431 39.9684 28.646 36.5908 30.9014C33.2132 33.1568 30.5802 36.3635 29.0248 40.1158C27.4694 43.8682 27.0614 47.9976 27.8526 51.9819C28.6437 55.9661 30.5984 59.6262 33.4694 62.4992C36.3404 65.3722 39.9987 67.329 43.9816 68.1221C47.9646 68.9153 52.0933 68.5092 55.8455 66.9551C59.5976 65.401 62.8047 62.7689 65.0611 59.3915C67.3176 56.0141 68.522 52.0433 68.522 47.9812C68.5232 45.2848 67.9933 42.6146 66.9626 40.1231C65.9318 37.6315 64.4203 35.3676 62.5146 33.4605C60.6088 31.5534 58.3461 30.0406 55.8556 29.0084C53.3652 27.9763 50.6958 27.445 48 27.445ZM48 61.3114C45.3638 61.3114 42.7867 60.5294 40.5949 59.0642C38.4031 57.5991 36.6949 55.5166 35.6865 53.0803C34.6781 50.644 34.4147 47.9632 34.9297 45.3772C35.4447 42.7911 36.7149 40.4159 38.5797 38.552C40.4444 36.6881 42.82 35.4193 45.4058 34.906C47.9916 34.3927 50.6715 34.6581 53.1066 35.6684C55.5416 36.6788 57.6224 38.3888 59.0856 40.5822C60.5489 42.7756 61.3289 45.3538 61.3271 47.9906C61.3221 51.5227 59.9158 54.9085 57.417 57.4043C54.9182 59.9002 51.5313 61.302 48 61.302V61.3114ZM74.1369 26.6361C74.1369 29.2858 71.9894 31.4338 69.3403 31.4338C66.6912 31.4338 64.5436 29.2858 64.5436 26.6361C64.5436 23.9863 66.6912 21.8383 69.3403 21.8383C71.9894 21.8383 74.1369 23.9863 74.1369 26.6361Z" fill="url(#paint0_linear_682_1151)"/>
<defs>
<linearGradient id="paint0_linear_682_1151" x1="8" y1="88" x2="88" y2="8" gradientUnits="userSpaceOnUse">
<stop stop-color="#FEC81E"/>
<stop offset="1" stop-color="#BF00A2"/>
</linearGradient>
</defs>
</svg>
