<svg width="24" height="24" viewBox="0 0 24 24" fill="none" xmlns="http://www.w3.org/2000/svg">
<path d="M21.75 12.2184C21.75 11.419 21.6836 10.8357 21.54 10.2308H12.199V13.8387H17.6819C17.5714 14.7353 16.9745 16.0856 15.6479 16.993L15.6293 17.1138L18.5828 19.3496L18.7874 19.3696C20.6666 17.6736 21.75 15.1782 21.75 12.2184Z" fill="#4285F4"/>
<path d="M12.199 21.7246C14.8852 21.7246 17.1403 20.8604 18.7874 19.3697L15.648 16.9931C14.8079 17.5656 13.6803 17.9653 12.199 17.9653C9.56808 17.9653 7.33511 16.2694 6.53911 13.9253L6.42244 13.935L3.3514 16.2575L3.31124 16.3666C4.94727 19.5425 8.30783 21.7246 12.199 21.7246Z" fill="#34A853"/>
<path d="M6.53907 13.9252C6.32904 13.3203 6.20749 12.6721 6.20749 12.0023C6.20749 11.3326 6.32904 10.6844 6.52802 10.0795L6.52246 9.95068L3.41294 7.59086L3.3112 7.63815C2.63691 8.95605 2.25 10.436 2.25 12.0023C2.25 13.5687 2.63691 15.0486 3.3112 16.3665L6.53907 13.9252Z" fill="#FBBC05"/>
<path d="M12.1984 6.0392C14.0665 6.0392 15.3267 6.82777 16.0453 7.48676L18.8531 4.80775C17.1286 3.24142 14.8845 2.28 12.1984 2.28C8.30717 2.28 4.94662 4.46206 3.31058 7.63793L6.5274 10.0793C7.33445 7.73519 9.56742 6.0392 12.1984 6.0392Z" fill="#EB4335"/>
</svg>
